<svg width="30" height="30" viewBox="0 0 30 30" fill="none" xmlns="http://www.w3.org/2000/svg">
<path fill-rule="evenodd" clip-rule="evenodd" d="M24.7405 6.76976C25.8156 7.05859 26.6661 7.90904 26.9549 8.98413C27.4844 10.9418 27.5005 15.0015 27.5005 15.0015C27.5005 15.0015 27.5005 19.0772 26.971 21.0188C26.6821 22.0939 25.8317 22.9443 24.7566 23.2332C22.815 23.7627 15.0005 23.7627 15.0005 23.7627C15.0005 23.7627 7.18598 23.7627 5.24439 23.2332C4.16929 22.9443 3.31885 22.0939 3.03001 21.0188C2.50049 19.0612 2.50049 15.0015 2.50049 15.0015C2.50049 15.0015 2.50049 10.9418 3.01397 9.00019C3.3028 7.92509 4.15325 7.07464 5.22834 6.78581C7.16994 6.25628 14.9844 6.24023 14.9844 6.24023C14.9844 6.24023 22.799 6.24023 24.7405 6.76976ZM18.9799 15.0015L12.4973 18.7563V11.2467L18.9799 15.0015Z" fill="#FAFAFA"/>
</svg>
