<svg width="24" height="24" viewBox="0 0 24 24" fill="none" xmlns="http://www.w3.org/2000/svg">
<path d="M14.4 3.60934C14.4396 3.46454 14.5345 3.34111 14.6643 3.26569C14.7941 3.19027 14.9483 3.16891 15.0938 3.20622C16.46 3.57345 17.7058 4.29334 18.7062 5.29375C19.7066 6.29415 20.4265 7.53993 20.7938 8.90622C20.8135 8.97825 20.8187 9.05349 20.8091 9.12756C20.7994 9.20162 20.7752 9.27303 20.7376 9.33761C20.7001 9.40219 20.6501 9.45865 20.5905 9.50369C20.5309 9.54874 20.463 9.58147 20.3906 9.59997L20.25 9.61872C20.1255 9.61852 20.0045 9.57699 19.9061 9.50064C19.8077 9.42429 19.7374 9.31744 19.7063 9.19684C19.3883 8.02257 18.7684 6.95205 17.9081 6.09182C17.0479 5.23159 15.9774 4.61165 14.8031 4.29372C14.6604 4.25408 14.5386 4.16059 14.4634 4.03293C14.3882 3.90528 14.3655 3.75342 14.4 3.60934ZM14.025 7.19059C14.691 7.3729 15.298 7.72554 15.7862 8.21378C16.2744 8.70201 16.6271 9.309 16.8094 9.97497C16.8405 10.0956 16.9108 10.2024 17.0092 10.2788C17.1076 10.3551 17.2286 10.3966 17.3531 10.3968L17.4938 10.3781C17.6372 10.3364 17.7592 10.2411 17.8342 10.1119C17.9093 9.98275 17.9317 9.82963 17.8969 9.68434C17.6652 8.82636 17.2126 8.04413 16.5842 7.41573C15.9558 6.78732 15.1736 6.33472 14.3156 6.10309C14.1703 6.06825 14.0172 6.09069 13.888 6.16575C13.7589 6.24081 13.6635 6.36274 13.6219 6.50622C13.5848 6.65042 13.6064 6.80343 13.682 6.93172C13.7576 7.06 13.8809 7.15309 14.025 7.19059ZM21.525 16.3875C21.3678 17.6096 20.7712 18.7327 19.8464 19.547C18.9217 20.3613 17.7322 20.8111 16.5 20.8125C9.15938 20.8125 3.1875 14.8406 3.1875 7.49997C3.18883 6.2678 3.63866 5.07825 4.45297 4.15352C5.26729 3.22879 6.39039 2.63212 7.6125 2.47497C7.89371 2.44205 8.17803 2.50095 8.42302 2.64287C8.66801 2.7848 8.86054 3.00214 8.97188 3.26247L10.8563 7.65934C10.9417 7.85828 10.977 8.07518 10.959 8.29096C10.9411 8.50674 10.8704 8.71479 10.7531 8.89684L9.1875 11.2781C9.17203 11.3049 9.16311 11.3351 9.16148 11.366C9.15985 11.397 9.16556 11.4279 9.17813 11.4562C9.89825 12.9327 11.0934 14.1246 12.5719 14.8406C12.6006 14.8535 12.6322 14.8585 12.6635 14.8552C12.6948 14.8519 12.7246 14.8404 12.75 14.8218L15.1031 13.2562C15.2834 13.1351 15.4912 13.0613 15.7075 13.0417C15.9238 13.022 16.1415 13.0571 16.3406 13.1437L20.7375 15.0281C20.9978 15.1394 21.2152 15.332 21.3571 15.5769C21.499 15.8219 21.5579 16.1063 21.525 16.3875ZM20.4094 16.2468C20.4126 16.2077 20.4035 16.1686 20.3833 16.135C20.3631 16.1014 20.3329 16.0749 20.2969 16.0593L15.9 14.175C15.8709 14.1638 15.8396 14.1597 15.8087 14.1629C15.7777 14.1662 15.748 14.1767 15.7219 14.1937L13.3781 15.7593C13.1884 15.884 12.9699 15.958 12.7434 15.9745C12.517 15.9909 12.2901 15.9491 12.0844 15.8531C10.3791 15.0229 8.99989 13.647 8.16563 11.9437C8.0682 11.7404 8.02478 11.5154 8.03956 11.2905C8.05434 11.0655 8.12681 10.8482 8.25 10.6593L9.80625 8.27809C9.82483 8.2527 9.83635 8.22285 9.83964 8.19156C9.84294 8.16027 9.83788 8.12867 9.825 8.09997L7.94063 3.70309C7.92625 3.67013 7.90269 3.642 7.87277 3.62206C7.84285 3.60211 7.80783 3.59119 7.77188 3.59059H7.75313C6.8036 3.71541 5.93158 4.18041 5.29886 4.89933C4.66614 5.61825 4.31568 6.54228 4.3125 7.49997C4.31498 10.7315 5.59982 13.83 7.88488 16.1151C10.1699 18.4002 13.2684 19.685 16.5 19.6875C17.4577 19.6843 18.3817 19.3338 19.1006 18.7011C19.8196 18.0684 20.2846 17.1964 20.4094 16.2468Z" fill="#7D7D7D"/>
</svg>
