<svg width="16" height="16" viewBox="0 0 16 16" fill="none" xmlns="http://www.w3.org/2000/svg">
<path fill-rule="evenodd" clip-rule="evenodd" d="M14.4001 8.0001C14.4001 11.5347 11.5347 14.4001 8.0001 14.4001C4.46547 14.4001 1.6001 11.5347 1.6001 8.0001C1.6001 4.46547 4.46547 1.6001 8.0001 1.6001C11.5347 1.6001 14.4001 4.46547 14.4001 8.0001ZM8.8001 11.2001C8.8001 11.6419 8.44194 12.0001 8.0001 12.0001C7.55827 12.0001 7.2001 11.6419 7.2001 11.2001C7.2001 10.7583 7.55827 10.4001 8.0001 10.4001C8.44194 10.4001 8.8001 10.7583 8.8001 11.2001ZM8.0001 4.0001C7.55827 4.0001 7.2001 4.35827 7.2001 4.8001V8.0001C7.2001 8.44194 7.55827 8.8001 8.0001 8.8001C8.44194 8.8001 8.8001 8.44194 8.8001 8.0001V4.8001C8.8001 4.35827 8.44194 4.0001 8.0001 4.0001Z" fill="#E53935"/>
</svg>
