<svg width="24" height="24" viewBox="0 0 24 24" stroke="red" fill="none" xmlns="http://www.w3.org/2000/svg">
<path d="M11.9986 13.3845C13.9104 13.3845 15.4602 11.8347 15.4602 9.92296C15.4602 8.01121 13.9104 6.46143 11.9986 6.46143C10.0869 6.46143 8.53711 8.01121 8.53711 9.92296C8.53711 11.8347 10.0869 13.3845 11.9986 13.3845Z" stroke="black" stroke-width="1.2" stroke-linecap="round" stroke-linejoin="round"/>
<path d="M6.08887 18.7846C6.70674 17.7704 7.57512 16.9322 8.61054 16.3505C9.64595 15.7689 10.8136 15.4634 12.0012 15.4634C13.1888 15.4634 14.3564 15.7689 15.3918 16.3505C16.4272 16.9322 17.2956 17.7704 17.9135 18.7846" stroke="black" stroke-width="1.2" stroke-linecap="round" stroke-linejoin="round"/>
<path d="M12 21C16.9706 21 21 16.9706 21 12C21 7.02944 16.9706 3 12 3C7.02944 3 3 7.02944 3 12C3 16.9706 7.02944 21 12 21Z" stroke="black" stroke-width="1.2" stroke-linecap="round" stroke-linejoin="round"/>
</svg>
