<svg width="32" height="32" viewBox="0 0 32 32" fill="none" xmlns="http://www.w3.org/2000/svg">
<rect width="32" height="32" rx="16" fill="#161616"/>
<path d="M23.6641 20.8068C23.3874 21.4521 23.0454 22.0674 22.6436 22.6431C22.1068 23.4099 21.666 23.9397 21.3282 24.2346C20.8034 24.7164 20.2396 24.9643 19.6369 24.9783C19.2051 24.9783 18.6833 24.8554 18.0756 24.6055C17.4659 24.3565 16.9061 24.2346 16.3933 24.2346C15.8566 24.2346 15.2808 24.3565 14.6641 24.6055C14.0484 24.8554 13.5506 24.9863 13.1697 24.9983C12.593 25.0233 12.0162 24.7694 11.4415 24.2346C11.0747 23.9147 10.6159 23.3649 10.0651 22.5872C9.47535 21.7585 8.99057 20.7938 8.61073 19.6972C8.20391 18.5106 8 17.363 8 16.2514C8 14.9788 8.27488 13.8802 8.82564 12.9606C9.2422 12.2383 9.83774 11.6355 10.5549 11.2102C11.262 10.786 12.0693 10.5576 12.8939 10.5484C13.3537 10.5484 13.9564 10.6904 14.7031 10.9703C15.4497 11.2502 15.9295 11.3921 16.1384 11.3921C16.2964 11.3921 16.8271 11.2252 17.7307 10.8943C18.5834 10.5874 19.3031 10.4604 19.8928 10.5104C21.4921 10.6394 22.6926 11.2691 23.4912 12.4047C22.0618 13.2714 21.3552 14.484 21.3692 16.0405C21.3811 17.253 21.822 18.2617 22.6856 19.0624C23.0674 19.4278 23.5129 19.7202 24 19.9251C23.894 20.232 23.7821 20.5249 23.6641 20.8068ZM19.9987 6.38087C19.9987 7.33053 19.6509 8.21822 18.9602 9.03893C18.1246 10.0146 17.115 10.5794 16.0205 10.4904C16.0062 10.371 15.9992 10.2508 15.9995 10.1305C15.9995 9.21787 16.3953 8.24221 17.102 7.44349C17.4539 7.03963 17.9017 6.70275 18.4444 6.43485C18.9862 6.17094 19.498 6.02499 19.9798 6C19.9928 6.12796 19.9987 6.25491 19.9987 6.38087Z" fill="#FAFAFA"/>
</svg>
