<svg width="103" height="33" viewBox="0 0 103 33" fill="none" xmlns="http://www.w3.org/2000/svg">
<g clip-path="url(#clip0_1_104)">
<path d="M7.84858 25.4712C6.96176 24.6568 5.93768 23.5986 4.91992 22.2948C7.18302 24.6738 9.10656 22.4305 10.5 20.7615C11.8817 19.3952 14.0987 16.4598 14.0987 14.4943C14.0987 13.6647 13.8107 12.902 13.3293 12.2966C14.9792 13.9183 18.3206 17.7493 17.0653 20.9481C15.7405 22.8877 14.3263 24.3916 13.1514 25.4703C11.6577 26.8429 9.34316 26.8429 7.84858 25.4712Z" fill="url(#paint0_radial_1_104)"/>
<path d="M18.2511 7.65553C20.1999 8.24849 21.3567 10.231 20.9025 12.1965C20.4555 14.129 19.6156 16.7125 18.0397 19.4121C17.7246 19.9524 17.3977 20.4641 17.0662 20.949C18.3215 17.7502 14.9801 13.9191 13.3302 12.2974C12.671 11.4687 11.6496 10.9365 10.5009 10.9365C8.61982 10.9365 7.07647 12.3644 6.91663 14.1835C6.92295 11.9081 7.7917 7.31261 12.1382 6.55265C14.5828 6.70447 16.6761 7.17598 18.2511 7.65553Z" fill="url(#paint1_radial_1_104)"/>
<path d="M6.91564 14.1826C6.90661 14.2853 6.90119 14.3889 6.90119 14.4942C6.90119 16.4598 9.11823 19.3951 10.4999 20.7614C9.10649 22.4305 7.18295 24.6737 4.91985 22.2947C4.25158 21.4401 3.58602 20.4801 2.9611 19.4112C1.38524 16.7125 0.545382 14.129 0.0983617 12.1956C-0.355883 10.2301 0.800951 8.2476 2.74978 7.65464C4.66609 7.0715 7.34821 6.49907 10.4999 6.49907C11.0616 6.49907 11.6071 6.51782 12.1372 6.55087C7.79072 7.31172 6.92196 11.9072 6.91564 14.1826Z" fill="url(#paint2_radial_1_104)"/>
</g>
<path d="M31.324 27V7.4H35.86V23.304H45.688V27H31.324ZM55.0004 27.224C53.3951 27.224 51.9671 26.888 50.7164 26.216C49.4844 25.544 48.5044 24.6293 47.7764 23.472C47.0671 22.296 46.7124 20.9613 46.7124 19.468C46.7124 17.956 47.0671 16.6213 47.7764 15.464C48.5044 14.288 49.4844 13.3733 50.7164 12.72C51.9671 12.048 53.3951 11.712 55.0004 11.712C56.5871 11.712 58.0057 12.048 59.2564 12.72C60.5071 13.3733 61.4871 14.2787 62.1964 15.436C62.9057 16.5933 63.2604 17.9373 63.2604 19.468C63.2604 20.9613 62.9057 22.296 62.1964 23.472C61.4871 24.6293 60.5071 25.544 59.2564 26.216C58.0057 26.888 56.5871 27.224 55.0004 27.224ZM55.0004 23.64C55.7284 23.64 56.3817 23.472 56.9604 23.136C57.5391 22.8 57.9964 22.324 58.3324 21.708C58.6684 21.0733 58.8364 20.3267 58.8364 19.468C58.8364 18.5907 58.6684 17.844 58.3324 17.228C57.9964 16.612 57.5391 16.136 56.9604 15.8C56.3817 15.464 55.7284 15.296 55.0004 15.296C54.2724 15.296 53.6191 15.464 53.0404 15.8C52.4617 16.136 51.9951 16.612 51.6404 17.228C51.3044 17.844 51.1364 18.5907 51.1364 19.468C51.1364 20.3267 51.3044 21.0733 51.6404 21.708C51.9951 22.324 52.4617 22.8 53.0404 23.136C53.6191 23.472 54.2724 23.64 55.0004 23.64ZM73.2641 32.656C71.8454 32.656 70.4734 32.4787 69.1481 32.124C67.8414 31.788 66.7494 31.2747 65.8721 30.584L67.6081 27.448C68.2427 27.9707 69.0454 28.3813 70.0161 28.68C71.0054 28.9973 71.9761 29.156 72.9281 29.156C74.4774 29.156 75.5974 28.8107 76.2881 28.12C76.9974 27.4293 77.3521 26.4027 77.3521 25.04V22.772L77.6321 18.992L77.5761 15.184V11.936H81.7201V24.48C81.7201 27.28 80.9921 29.3427 79.5361 30.668C78.0801 31.9933 75.9894 32.656 73.2641 32.656ZM72.5921 26.272C71.1921 26.272 69.9227 25.9733 68.7841 25.376C67.6641 24.76 66.7587 23.9107 66.0681 22.828C65.3961 21.7267 65.0601 20.448 65.0601 18.992C65.0601 17.5173 65.3961 16.2387 66.0681 15.156C66.7587 14.0547 67.6641 13.2053 68.7841 12.608C69.9227 12.0107 71.1921 11.712 72.5921 11.712C73.8614 11.712 74.9814 11.9733 75.9521 12.496C76.9227 13 77.6787 13.7933 78.2201 14.876C78.7614 15.94 79.0321 17.312 79.0321 18.992C79.0321 20.6533 78.7614 22.0253 78.2201 23.108C77.6787 24.172 76.9227 24.9653 75.9521 25.488C74.9814 26.0107 73.8614 26.272 72.5921 26.272ZM73.4601 22.688C74.2254 22.688 74.9067 22.5387 75.5041 22.24C76.1014 21.9227 76.5681 21.484 76.9041 20.924C77.2401 20.364 77.4081 19.72 77.4081 18.992C77.4081 18.2453 77.2401 17.6013 76.9041 17.06C76.5681 16.5 76.1014 16.0707 75.5041 15.772C74.9067 15.4547 74.2254 15.296 73.4601 15.296C72.6947 15.296 72.0134 15.4547 71.4161 15.772C70.8187 16.0707 70.3427 16.5 69.9881 17.06C69.6521 17.6013 69.4841 18.2453 69.4841 18.992C69.4841 19.72 69.6521 20.364 69.9881 20.924C70.3427 21.484 70.8187 21.9227 71.4161 22.24C72.0134 22.5387 72.6947 22.688 73.4601 22.688ZM92.9535 27.224C91.3482 27.224 89.9202 26.888 88.6695 26.216C87.4375 25.544 86.4575 24.6293 85.7295 23.472C85.0202 22.296 84.6655 20.9613 84.6655 19.468C84.6655 17.956 85.0202 16.6213 85.7295 15.464C86.4575 14.288 87.4375 13.3733 88.6695 12.72C89.9202 12.048 91.3482 11.712 92.9535 11.712C94.5402 11.712 95.9589 12.048 97.2095 12.72C98.4602 13.3733 99.4402 14.2787 100.15 15.436C100.859 16.5933 101.214 17.9373 101.214 19.468C101.214 20.9613 100.859 22.296 100.15 23.472C99.4402 24.6293 98.4602 25.544 97.2095 26.216C95.9589 26.888 94.5402 27.224 92.9535 27.224ZM92.9535 23.64C93.6815 23.64 94.3349 23.472 94.9135 23.136C95.4922 22.8 95.9495 22.324 96.2855 21.708C96.6215 21.0733 96.7895 20.3267 96.7895 19.468C96.7895 18.5907 96.6215 17.844 96.2855 17.228C95.9495 16.612 95.4922 16.136 94.9135 15.8C94.3349 15.464 93.6815 15.296 92.9535 15.296C92.2255 15.296 91.5722 15.464 90.9935 15.8C90.4149 16.136 89.9482 16.612 89.5935 17.228C89.2575 17.844 89.0895 18.5907 89.0895 19.468C89.0895 20.3267 89.2575 21.0733 89.5935 21.708C89.9482 22.324 90.4149 22.8 90.9935 23.136C91.5722 23.472 92.2255 23.64 92.9535 23.64Z" fill="black"/>
<defs>
<radialGradient id="paint0_radial_1_104" cx="0" cy="0" r="1" gradientUnits="userSpaceOnUse" gradientTransform="translate(14.2579 15.0177) scale(12.7523 12.6103)">
<stop stop-color="#2771B3"/>
<stop offset="0.4909" stop-color="#00A6DB"/>
<stop offset="1" stop-color="#84E7FD"/>
</radialGradient>
<radialGradient id="paint1_radial_1_104" cx="0" cy="0" r="1" gradientUnits="userSpaceOnUse" gradientTransform="translate(6.44958 11.2204) scale(13.7866 13.6331)">
<stop stop-color="#2571B4"/>
<stop offset="0.4909" stop-color="#00A6DB"/>
<stop offset="1" stop-color="#84E7FD"/>
</radialGradient>
<radialGradient id="paint2_radial_1_104" cx="0" cy="0" r="1" gradientUnits="userSpaceOnUse" gradientTransform="translate(7.9856 22.6126) scale(16.6427 16.4574)">
<stop stop-color="#2B75B7"/>
<stop offset="0.4909" stop-color="#00A6DB"/>
<stop offset="1" stop-color="#8CEAFF"/>
</radialGradient>
<clipPath id="clip0_1_104">
<rect width="21" height="20" fill="white" transform="matrix(1 0 0 -1 0 26.5)"/>
</clipPath>
</defs>
</svg>
