<svg width="24" height="24" viewBox="0 0 24 24" fill="none" xmlns="http://www.w3.org/2000/svg">
<path fill-rule="evenodd" clip-rule="evenodd" d="M12 21.1885L12.7211 20.376C13.5394 19.4388 14.2754 18.5497 14.9303 17.704L15.4709 16.9908C17.728 13.9497 18.8571 11.536 18.8571 9.75197C18.8571 5.94397 15.7874 2.85712 12 2.85712C8.21257 2.85712 5.14285 5.94397 5.14285 9.75197C5.14285 11.536 6.272 13.9497 8.52914 16.9908L9.06971 17.704C10.0039 18.901 10.9813 20.0637 12 21.1897V21.1885Z" stroke="#00A6DB" stroke-linecap="round" stroke-linejoin="round"/>
<path d="M12 12.5714C13.578 12.5714 14.8571 11.2922 14.8571 9.71426C14.8571 8.1363 13.578 6.85712 12 6.85712C10.422 6.85712 9.14285 8.1363 9.14285 9.71426C9.14285 11.2922 10.422 12.5714 12 12.5714Z" stroke="#00A6DB" stroke-linecap="round" stroke-linejoin="round"/>
</svg>
