<svg width="24" height="24" viewBox="0 0 24 24" fill="none" xmlns="http://www.w3.org/2000/svg">
<path d="M20 20L14.7826 14.7826M4 10.2609C4 11.0831 4.16194 11.8972 4.47658 12.6568C4.79122 13.4164 5.25239 14.1066 5.83377 14.688C6.41514 15.2693 7.10533 15.7305 7.86494 16.0452C8.62454 16.3598 9.43868 16.5217 10.2609 16.5217C11.0831 16.5217 11.8972 16.3598 12.6568 16.0452C13.4164 15.7305 14.1066 15.2693 14.688 14.688C15.2693 14.1066 15.7305 13.4164 16.0452 12.6568C16.3598 11.8972 16.5217 11.0831 16.5217 10.2609C16.5217 8.60038 15.8621 7.00791 14.688 5.83377C13.5138 4.65963 11.9214 4 10.2609 4C8.60038 4 7.00791 4.65963 5.83377 5.83377C4.65963 7.00791 4 8.60038 4 10.2609V10.2609Z" stroke="#C1C1C1" stroke-width="1.2" stroke-linecap="round" stroke-linejoin="round"/>
</svg>
