<svg width="24" height="24" viewBox="0 0 24 24" fill="none" xmlns="http://www.w3.org/2000/svg">
<path d="M15.7372 12.0295L20.8633 7.31967V17.7961L15.7372 12.0295ZM8.26276 12.0286L10.932 14.4796C11.2146 14.7335 11.5829 14.8868 11.9854 14.8868H11.9996H12.0104C12.4138 14.8868 12.7821 14.7326 13.068 14.477L13.0655 14.4788L15.7372 12.0295L20.8633 17.7961H3.13755L8.26276 12.0286ZM3.65507 6.20302H20.3474L12.3296 13.5675C12.2394 13.6429 12.1279 13.6839 12.0129 13.6838H12.0013H11.9904C11.8751 13.6839 11.7631 13.6426 11.6729 13.5666L11.6737 13.5675L3.65507 6.20302ZM3.13755 7.31879L8.26276 12.0286L3.13755 17.7961V7.31879ZM21.1383 5.16745C20.9383 5.06169 20.7033 5 20.4541 5H3.54923C3.30769 5.00006 3.06947 5.0595 2.85337 5.17362L2.86254 5.16922C2.60384 5.30416 2.38597 5.51292 2.23355 5.77191C2.08114 6.03091 2.00024 6.32982 2 6.63488V17.3625C2.00044 17.7966 2.16372 18.2129 2.454 18.5199C2.74429 18.8269 3.13787 18.9995 3.5484 19H20.4516C20.8621 18.9995 21.2557 18.8269 21.546 18.5199C21.8363 18.2129 21.9996 17.7966 22 17.3625V6.63488C22 5.99415 21.6508 5.4389 21.1425 5.17186L21.1333 5.16745H21.1383Z" fill="#161616"/>
</svg>
